<svg width="20" height="17" viewBox="0 0 20 17" fill="none" xmlns="http://www.w3.org/2000/svg">
<path d="M18.4134 1.66367C17.3781 0.590857 15.9575 0 14.413 0C13.2585 0 12.2012 0.348712 11.2704 1.03637C10.8008 1.38348 10.3752 1.80814 10 2.3038C9.62494 1.80829 9.19922 1.38348 8.7294 1.03637C7.79877 0.348712 6.74149 0 5.58701 0C4.04251 0 2.62177 0.590857 1.58646 1.66367C0.563507 2.72395 0 4.17244 0 5.74252C0 7.35852 0.630341 8.83778 1.98364 10.3979C3.19427 11.7935 4.93423 13.2102 6.94916 14.8507C7.63718 15.411 8.41705 16.046 9.22684 16.7224C9.44077 16.9015 9.71527 17 10 17C10.2846 17 10.5592 16.9015 10.7729 16.7227C11.5826 16.0461 12.363 15.4108 13.0513 14.8503C15.0659 13.2101 16.8059 11.7935 18.0165 10.3978C19.3698 8.83778 20 7.35852 20 5.74238C20 4.17244 19.4365 2.72395 18.4134 1.66367Z" fill="#FF6767"/>
</svg>