<svg width="10" height="10" viewBox="0 0 10 10" fill="none" xmlns="http://www.w3.org/2000/svg">
<path d="M9.54539 0H5.90903C5.65799 0 5.45448 0.203515 5.45448 0.45455C5.45448 0.705585 5.65799 0.9091 5.90903 0.9091H8.44803L3.76946 5.58768C3.59198 5.76516 3.59198 6.05298 3.76946 6.2305C3.85819 6.31923 3.97452 6.36362 4.09085 6.36362C4.20718 6.36362 4.32352 6.31923 4.41223 6.23048L9.09086 1.55191V4.09091C9.09086 4.34194 9.29437 4.54546 9.54541 4.54546C9.79644 4.54546 9.99996 4.34194 9.99996 4.09091V0.45455C9.99994 0.203515 9.79642 0 9.54539 0Z" fill="#8EA7FF"/>
<path d="M7.72725 4.54543C7.47622 4.54543 7.2727 4.74894 7.2727 4.99998V9.09089H0.90908V2.72725H4.99999C5.25103 2.72725 5.45454 2.52373 5.45454 2.2727C5.45454 2.02166 5.25103 1.81817 4.99999 1.81817H0.45455C0.203515 1.81817 0 2.02168 0 2.27272V9.54544C0 9.79645 0.203515 9.99997 0.45455 9.99997H7.72727C7.97831 9.99997 8.18182 9.79645 8.18182 9.54542V4.99998C8.1818 4.74894 7.97829 4.54543 7.72725 4.54543Z" fill="#8EA7FF"/>
</svg>
