<svg width="20" height="19" viewBox="0 0 20 19" fill="none" xmlns="http://www.w3.org/2000/svg">
<path d="M17.2504 0H2.74963C1.23352 0 0 1.23328 0 2.74963V11.6238C0 13.1367 1.22815 14.368 2.73987 14.3734V18.4004L8.5271 14.3734H17.2504C18.7665 14.3734 20 13.1399 20 11.6238V2.74963C20 1.23328 18.7665 0 17.2504 0ZM18.8281 11.6238C18.8281 12.4937 18.1204 13.2015 17.2504 13.2015H8.15942L3.91174 16.1573V13.2015H2.74963C1.87964 13.2015 1.17188 12.4937 1.17188 11.6238V2.74963C1.17188 1.87952 1.87964 1.17188 2.74963 1.17188H17.2504C18.1204 1.17188 18.8281 1.87952 18.8281 2.74963V11.6238Z" fill="#ABABAB"/>
<path d="M5.35291 4.14075H14.6471V5.31262H5.35291V4.14075Z" fill="#ABABAB"/>
<path d="M5.35291 6.64075H14.6471V7.81262H5.35291V6.64075Z" fill="#ABABAB"/>
<path d="M5.35291 9.14075H14.6471V10.3126H5.35291V9.14075Z" fill="#ABABAB"/>
</svg>
